<svg width="81" height="38" viewBox="0 0 81 38" fill="none" xmlns="http://www.w3.org/2000/svg">
<g clip-path="url(#clip0_2423_1481)">
<path d="M16.3094 17.1106C13.9471 15.9855 10.9888 14.5702 9.15847 12.6879C7.56936 11.0391 6.92379 9.42571 6.92379 7.11174C6.92379 3.75755 8.95983 1.1676 11.2229 0C8.44905 0.318436 6.05829 1.1959 4.34858 2.54749C1.84432 4.45103 0.581543 7.09759 0.581543 10.4306C0.581543 13.0347 1.51089 15.2354 3.49727 17.3442C5.21408 19.1486 7.79638 20.5922 10.5276 22.1207L11.3719 22.5948C14.4437 24.279 17.0969 25.8146 18.4022 27.5836C19.2252 28.7442 19.5657 29.7985 19.5657 31.136C19.5657 34.1151 17.6928 36.606 14.5926 37.8585C17.7921 37.5118 20.5518 36.4999 22.524 34.9289C24.7658 33.0891 25.9576 30.6053 25.9576 27.7676C25.9647 22.4391 21.9635 19.9907 16.3094 17.1106Z" fill="white"/>
<path d="M0 28.546C0.0283769 28.7654 0.0567539 28.9918 0.0780366 29.2112C0.432748 32.1479 0.766177 34.9359 1.15636 36.5564C3.66062 37.4481 7.61921 37.9859 11.8899 38C9.58431 37.2924 7.2574 35.9337 4.95177 33.9594C3.47617 32.7069 1.56073 30.86 0 28.546Z" fill="white"/>
<path d="M76.2628 0.311386C74.7801 0.325539 73.2406 0.339692 71.8218 0.339692C71.3961 0.339692 70.9421 0.339692 70.4668 0.332616L48.354 37.6675L57.6617 37.6321L80.2071 0.283081C79.3204 0.290157 77.2489 0.297234 76.2628 0.311386Z" fill="white"/>
<path d="M65.5151 37.6675H77.327L79.0793 27.0246C79.0864 27.0246 73.3188 35.5304 65.5151 37.6675Z" fill="white"/>
<path d="M49.4185 15.5327C56.2857 1.52858 60.2088 0.283142 60.2088 0.283142H47.0703C47.0703 0.283142 52.7882 3.61611 49.4185 15.5327Z" fill="white"/>
<path d="M36.4999 12.8295C31.9454 2.92262 34.9462 0.721876 35.9394 0.283142H20.6159H19.417C23.2124 0.283142 25.2981 5.78147 25.2981 5.78147L34.8398 27.1237C36.3722 30.5133 38.3373 34.8865 39.5504 37.6604V37.6675L44.4099 29.4589C43.6934 28.0366 37.1951 14.3721 36.9043 13.7353C36.7766 13.4381 36.6347 13.1338 36.4999 12.8295Z" fill="white"/>
</g>
<defs>
<clipPath id="clip0_2423_1481">
<rect width="81" height="38" fill="white"/>
</clipPath>
</defs>
</svg>
